<svg id="Camada_1" data-name="Camada 1" xmlns="http://www.w3.org/2000/svg" viewBox="0 0 250.59 491.42"><defs><style>.cls-1{fill:#ffdc00;}.cls-1,.cls-2,.cls-3,.cls-4,.cls-5,.cls-6,.cls-7,.cls-8{stroke:#000;}.cls-1,.cls-2,.cls-3,.cls-4,.cls-5,.cls-7,.cls-8{stroke-miterlimit:10;stroke-width:3px;}.cls-2{fill:none;}.cls-3{fill:#868bf6;}.cls-4{fill:#fffac6;}.cls-5,.cls-6{fill:#e9001e;}.cls-6{stroke-miterlimit:10;stroke-width:3px;}.cls-7{fill:#0a0;}.cls-8{fill:#1f8400;}</style></defs><path class="cls-1" d="M204.5,195.08l-25.26,25.26a29,29,0,0,0,9.4,47.28h0a29,29,0,0,0,40-26.79V205.12A34.12,34.12,0,0,1,204.5,195.08Z" transform="translate(-109.82 220.11)"/><path class="cls-1" d="M252.88,146.65l25.26-25.26a29,29,0,0,0-9.4-47.28h0a29,29,0,0,0-40.08,26.78v35.73A34.16,34.16,0,0,1,252.88,146.65Z" transform="translate(-109.82 220.11)"/><path class="cls-1" d="M228.66,136.62V100.89a29,29,0,0,0-40.07-26.78h0a29,29,0,0,0-9.4,47.28l25.31,25.26A34.11,34.11,0,0,1,228.66,136.62Z" transform="translate(-109.82 220.11)"/><path class="cls-1" d="M228.66,205.12v35.71a29,29,0,0,0,40.08,26.78h0a29,29,0,0,0,9.4-47.28l-25.26-25.26A34.13,34.13,0,0,1,228.66,205.12Z" transform="translate(-109.82 220.11)"/><path class="cls-1" d="M194.41,170.83a34.15,34.15,0,0,1,10-24.22l-25.26-25.26a29,29,0,0,0-47.28,9.4h0a29,29,0,0,0,26.82,40.08Z" transform="translate(-109.82 220.11)"/><path class="cls-1" d="M298.64,170.83H262.91a34.13,34.13,0,0,1-10,24.21l25.26,25.26a29,29,0,0,0,47.28-9.4h0a29,29,0,0,0-26.81-40.07Z" transform="translate(-109.82 220.11)"/><path class="cls-1" d="M262.91,170.83h35.73a29,29,0,0,0,26.78-40h0a29,29,0,0,0-47.28-9.4l-25.26,25.26A34.16,34.16,0,0,1,262.91,170.83Z" transform="translate(-109.82 220.11)"/><path class="cls-1" d="M194.41,170.83H158.69a29,29,0,0,0-26.78,40.07h0a29,29,0,0,0,47.28,9.4l25.31-25.22A34.12,34.12,0,0,1,194.41,170.83Z" transform="translate(-109.82 220.11)"/><polygon class="cls-2" points="94.62 415.2 69.36 440.46 94.62 415.2 94.62 415.2"/><polygon class="cls-2" points="118.84 390.98 118.84 390.98 118.84 390.98 118.84 390.98"/><polygon class="cls-2" points="118.84 390.98 118.84 390.98 118.84 390.98 118.84 390.98"/><path class="cls-3" d="M314.69-191.44,261-162A10,10,0,0,1,247.43-166a10.23,10.23,0,0,1-1-2.82h0a9.94,9.94,0,0,1,7.91-11.62,9.8,9.8,0,0,1,3.15-.09l60.77,7.76a10,10,0,0,0,11.15-8.7,9.88,9.88,0,0,0-.08-3h0a10,10,0,0,0-11.7-8A10,10,0,0,0,314.69-191.44Z" transform="translate(-109.82 220.11)"/><path class="cls-3" d="M258.93-146h0a10,10,0,0,1-.36-14.14A10,10,0,0,1,261-162l53.72-29.44a10,10,0,0,0,3.85-13.61,9.86,9.86,0,0,0-1.84-2.37h0a9.93,9.93,0,0,0-14.05.44,9.74,9.74,0,0,0-1.74,2.56L274.73-149a10,10,0,0,1-13.34,4.68A10,10,0,0,1,258.93-146Z" transform="translate(-109.82 220.11)"/><path class="cls-3" d="M249.71-194.72h0a10,10,0,0,0,4.87,13.28,9.73,9.73,0,0,0,2.85.83l60.77,7.77a9.94,9.94,0,0,1,8.59,11.12,10.22,10.22,0,0,1-.87,3h0a10,10,0,0,1-13.35,4.68,9.75,9.75,0,0,1-2.45-1.67l-44.59-42a10,10,0,0,0-14,.41A10.17,10.17,0,0,0,249.71-194.72Z" transform="translate(-109.82 220.11)"/><path class="cls-3" d="M293.17-218.54h0A10,10,0,0,0,282-209.83a10.06,10.06,0,0,0,.08,3l11.4,60.19A10,10,0,0,1,285.46-135a10.18,10.18,0,0,1-3,.09h0a10,10,0,0,1-8.54-11.27,9.91,9.91,0,0,1,.83-2.85l26.16-55.39A10,10,0,0,0,296-217.7,10.1,10.1,0,0,0,293.17-218.54Z" transform="translate(-109.82 220.11)"/><path class="cls-3" d="M287.81-176.72l-22.32-21.07a10,10,0,0,1-.33-14.13,10.11,10.11,0,0,1,2.38-1.84h0a10,10,0,0,1,13.55,4.06,9.75,9.75,0,0,1,1,2.81Z" transform="translate(-109.82 220.11)"/><path class="cls-3" d="M299-154l22.31,21.07a10,10,0,0,1,.33,14.14,9.63,9.63,0,0,1-2.38,1.83h0a10,10,0,0,1-13.54-4,9.92,9.92,0,0,1-1-2.82Z" transform="translate(-109.82 220.11)"/><circle class="cls-4" cx="228.66" cy="170.87" r="28.99" transform="translate(-86.45 589.32) rotate(-80.78)"/><path class="cls-5" d="M169.54-43.74,134-32.63A17.45,17.45,0,0,0,122.46-10.8a17.58,17.58,0,0,0,3.31,6.06h0a17.46,17.46,0,0,0,24.58,2.23,17.61,17.61,0,0,0,4.28-5.31l17.3-33A4.86,4.86,0,0,1,169.54-43.74Z" transform="translate(-109.82 220.11)"/><path class="cls-5" d="M178.85-46.64l35.57-11.1a17.45,17.45,0,0,0,11.47-21.85,17.4,17.4,0,0,0-3.26-6h0A17.46,17.46,0,0,0,198-87.81a17.42,17.42,0,0,0-4.28,5.3l-17.3,33A4.9,4.9,0,0,1,178.85-46.64Z" transform="translate(-109.82 220.11)"/><path class="cls-5" d="M176.46-49.51l17.3-33a17.45,17.45,0,0,0-7.34-23.56,17.42,17.42,0,0,0-6.54-1.93h0a17.46,17.46,0,0,0-19,15.82,17.44,17.44,0,0,0,.72,6.77l11.11,35.57A4.84,4.84,0,0,1,176.46-49.51Z" transform="translate(-109.82 220.11)"/><path class="cls-5" d="M171.93-40.87l-17.3,33A17.45,17.45,0,0,0,162,15.69a17.52,17.52,0,0,0,6.55,1.93h0A17.45,17.45,0,0,0,187.47,1.81,17.44,17.44,0,0,0,186.75-5l-11.1-35.57A4.91,4.91,0,0,1,171.93-40.87Z" transform="translate(-109.82 220.11)"/><path class="cls-5" d="M169.88-47.45a4.83,4.83,0,0,1,2.87-2.39L161.64-85.41a17.45,17.45,0,0,0-21.85-11.47,17.4,17.4,0,0,0-6,3.26h0A17.44,17.44,0,0,0,131.55-69a17.26,17.26,0,0,0,5.33,4.31l33,17.31Z" transform="translate(-109.82 220.11)"/><path class="cls-5" d="M211.52-25.62l-33-17.3a4.91,4.91,0,0,1-2.86,2.39L186.76-5A17.44,17.44,0,0,0,208.61,6.5a17.4,17.4,0,0,0,6-3.26h0a17.46,17.46,0,0,0,2.23-24.58A17.46,17.46,0,0,0,211.52-25.62Z" transform="translate(-109.82 220.11)"/><path class="cls-5" d="M178.51-42.92h0l33,17.3A17.45,17.45,0,0,0,235.07-33,17.52,17.52,0,0,0,237-39.51h0a17.45,17.45,0,0,0-15.81-19,17.44,17.44,0,0,0-6.77.72l-35.57,11.1A4.87,4.87,0,0,1,178.51-42.92Z" transform="translate(-109.82 220.11)"/><path class="cls-5" d="M136.88-64.74a17.46,17.46,0,0,0-23.57,7.37,17.49,17.49,0,0,0-1.92,6.52h0a17.47,17.47,0,0,0,15.82,19,17.58,17.58,0,0,0,6.76-.72l35.57-11.13a4.8,4.8,0,0,1,.34-3.71Z" transform="translate(-109.82 220.11)"/><polygon class="cls-5" points="69.03 173.47 104.6 162.37 69.03 173.47 69.03 173.47"/><polygon class="cls-5" points="64.37 174.92 64.37 174.92 64.37 174.92 64.37 174.92"/><polygon class="cls-5" points="64.37 174.92 64.37 174.92 64.37 174.92 64.37 174.92"/><polygon class="cls-6" points="64.37 174.94 64.37 174.94 64.37 174.94 64.37 174.94"/><polygon class="cls-5" points="64.37 174.92 64.37 174.92 64.37 174.92 64.37 174.92"/><path class="cls-3" d="M-373,65" transform="translate(-109.82 220.11)"/><path class="cls-7" d="M296.4,27.6h0a62.5,62.5,0,0,1,62.5,62.5v0a0,0,0,0,1,0,0h0a62.5,62.5,0,0,1-62.5-62.5v0A0,0,0,0,1,296.4,27.6Z" transform="translate(276.68 -48.7) rotate(90)"/><path class="cls-7" d="M199.07-207.89h0a30.1,30.1,0,0,1,30.1,30.1v0a0,0,0,0,1,0,0h0a30.1,30.1,0,0,1-30.1-30.1v0A0,0,0,0,1,199.07-207.89Z" transform="translate(75.02 313.93) rotate(-42.16)"/><path class="cls-8" d="M231.62-22.92h0A42.39,42.39,0,0,1,274,19.47v0a0,0,0,0,1,0,0h0a42.39,42.39,0,0,1-42.39-42.39v0A0,0,0,0,1,231.62-22.92Z" transform="translate(-103.22 275.81) rotate(-12.74)"/></svg>