<svg id="Camada_1" data-name="Camada 1" xmlns="http://www.w3.org/2000/svg" viewBox="0 0 420.29 271.36"><defs><style>.cls-1{fill:none;stroke:#000;stroke-miterlimit:10;stroke-width:3px;}</style></defs><path class="cls-1" d="M288,673.25l-25.26,25.26a29,29,0,0,0,9.4,47.28h0A29,29,0,0,0,312.16,719V683.29A34.12,34.12,0,0,1,288,673.25Z" transform="translate(-83.5 -478.17)"/><path class="cls-1" d="M336.38,624.82l25.26-25.26a29,29,0,0,0-9.4-47.28h0a29,29,0,0,0-40.08,26.78v35.73A34.14,34.14,0,0,1,336.38,624.82Z" transform="translate(-83.5 -478.17)"/><path class="cls-1" d="M312.16,614.79V579.06a29,29,0,0,0-40.07-26.78h0a29,29,0,0,0-9.4,47.28L288,624.82A34.11,34.11,0,0,1,312.16,614.79Z" transform="translate(-83.5 -478.17)"/><path class="cls-1" d="M312.16,683.29V719a29,29,0,0,0,40.08,26.78h0a29,29,0,0,0,9.4-47.28l-25.26-25.26A34.15,34.15,0,0,1,312.16,683.29Z" transform="translate(-83.5 -478.17)"/><path class="cls-1" d="M277.91,649a34.15,34.15,0,0,1,10-24.22l-25.26-25.26a29,29,0,0,0-47.28,9.4h0A29,29,0,0,0,242.19,649Z" transform="translate(-83.5 -478.17)"/><path class="cls-1" d="M382.14,649H346.41a34.11,34.11,0,0,1-10,24.21l25.26,25.26a29,29,0,0,0,47.28-9.4h0A29,29,0,0,0,382.14,649Z" transform="translate(-83.5 -478.17)"/><path class="cls-1" d="M346.41,649h35.73A29,29,0,0,0,408.92,609h0a29,29,0,0,0-47.28-9.4l-25.26,25.26A34.14,34.14,0,0,1,346.41,649Z" transform="translate(-83.5 -478.17)"/><path class="cls-1" d="M277.91,649H242.19a29,29,0,0,0-26.78,40.07h0a29,29,0,0,0,47.28,9.4L288,673.25A34.12,34.12,0,0,1,277.91,649Z" transform="translate(-83.5 -478.17)"/><polygon class="cls-1" points="204.44 195.09 179.18 220.35 204.44 195.09 204.44 195.09"/><polygon class="cls-1" points="228.66 170.87 228.66 170.87 228.66 170.87 228.66 170.87"/><polygon class="cls-1" points="228.66 170.87 228.66 170.87 228.66 170.87 228.66 170.87"/><path class="cls-1" d="M436.92,560.56l49.56,36a10,10,0,0,1,0,16.1h0a9.94,9.94,0,0,1-15.31-5l-18.93-58.27a10,10,0,0,0-15.32-5h0A10,10,0,0,0,436.92,560.56Z" transform="translate(-83.5 -478.17)"/><path class="cls-1" d="M501.8,591.59h0a10,10,0,0,1-15.32,5l-49.56-36a10,10,0,0,0-15.31,5h0a9.94,9.94,0,0,0,9.46,13h61.26A10,10,0,0,1,501.8,591.59Z" transform="translate(-83.5 -478.17)"/><path class="cls-1" d="M461.7,620.72h0a10,10,0,0,0,9.47-13l-18.93-58.27a9.94,9.94,0,0,1,9.46-13h0a10,10,0,0,1,9.47,13L452.24,607.7A9.94,9.94,0,0,0,461.7,620.72Z" transform="translate(-83.5 -478.17)"/><path class="cls-1" d="M421.61,591.59h0a10,10,0,0,0,15.31,5l49.56-36a10,10,0,0,1,15.32,5h0a10,10,0,0,1-9.47,13H431.07A10,10,0,0,0,421.61,591.59Z" transform="translate(-83.5 -478.17)"/><path class="cls-1" d="M436.92,612.67h0a10,10,0,0,1,0-16.1l49.56-36a10,10,0,0,0,0-16.1h0a9.94,9.94,0,0,0-15.31,5L452.24,607.7A10,10,0,0,1,436.92,612.67Z" transform="translate(-83.5 -478.17)"/><circle class="cls-1" cx="228.66" cy="170.87" r="28.99"/><path class="cls-1" d="M143.23,544l-35.57,11.11A17.45,17.45,0,0,0,99.46,583h0a17.45,17.45,0,0,0,28.86-3.08l17.3-33A4.89,4.89,0,0,1,143.23,544Z" transform="translate(-83.5 -478.17)"/><path class="cls-1" d="M152.54,541.1,188.11,530a17.45,17.45,0,0,0,8.21-27.84h0a17.46,17.46,0,0,0-28.87,3.07l-17.3,33A4.89,4.89,0,0,1,152.54,541.1Z" transform="translate(-83.5 -478.17)"/><path class="cls-1" d="M150.15,538.23l17.3-33a17.45,17.45,0,0,0-13.88-25.49h0a17.46,17.46,0,0,0-18.24,22.59l11.11,35.57A4.87,4.87,0,0,1,150.15,538.23Z" transform="translate(-83.5 -478.17)"/><path class="cls-1" d="M145.62,546.87l-17.3,33a17.45,17.45,0,0,0,13.89,25.49h0a17.45,17.45,0,0,0,18.23-22.58l-11.1-35.57A4.91,4.91,0,0,1,145.62,546.87Z" transform="translate(-83.5 -478.17)"/><path class="cls-1" d="M143.57,540.29a4.83,4.83,0,0,1,2.87-2.39l-11.11-35.57a17.45,17.45,0,0,0-27.84-8.21h0A17.45,17.45,0,0,0,110.57,523l33,17.31Z" transform="translate(-83.5 -478.17)"/><path class="cls-1" d="M185.21,562.12l-33-17.3a4.88,4.88,0,0,1-2.86,2.39l11.1,35.57a17.45,17.45,0,0,0,27.84,8.2h0A17.45,17.45,0,0,0,185.21,562.12Z" transform="translate(-83.5 -478.17)"/><path class="cls-1" d="M152.2,544.82h0l33,17.3a17.45,17.45,0,0,0,25.49-13.89h0A17.45,17.45,0,0,0,188.11,530l-35.57,11.1A4.86,4.86,0,0,1,152.2,544.82Z" transform="translate(-83.5 -478.17)"/><path class="cls-1" d="M110.57,523a17.46,17.46,0,0,0-25.49,13.89h0a17.46,17.46,0,0,0,22.58,18.24L143.23,544a4.83,4.83,0,0,1,.34-3.71Z" transform="translate(-83.5 -478.17)"/><polygon class="cls-1" points="69.04 62.93 104.61 51.83 69.04 62.93 69.04 62.93"/><rect class="cls-1" x="64.38" y="64.38"/><polygon class="cls-1" points="64.38 64.38 64.38 64.38 64.38 64.38 64.38 64.38"/><rect class="cls-1" x="147.89" y="542.55" transform="translate(-484.8 -56.57) rotate(-62.33)"/><polygon class="cls-1" points="64.38 64.38 64.38 64.38 64.38 64.38 64.38 64.38"/></svg>